<mxfile host="app.diagrams.net" modified="2023-04-24T14:50:39.555Z" agent="Mozilla/5.0 (Windows NT 10.0; Win64; x64) AppleWebKit/537.36 (KHTML, like Gecko) Chrome/111.0.0.0 Safari/537.36 OPR/97.0.0.0 (Edition std-1)" etag="5rFW3TdSZl9qFVbF3SES" version="21.2.1" type="device">
  <diagram name="Page-1" id="ZDDE2326gmcbjw2YVOf3">
    <mxGraphModel dx="2313" dy="1261" grid="1" gridSize="10" guides="1" tooltips="1" connect="1" arrows="1" fold="1" page="1" pageScale="1" pageWidth="4681" pageHeight="3300" math="0" shadow="0">
      <root>
        <mxCell id="0" />
        <mxCell id="1" parent="0" />
        <mxCell id="qWewhZYoWnIx53V6GJs0-9" style="edgeStyle=orthogonalEdgeStyle;rounded=0;orthogonalLoop=1;jettySize=auto;html=1;exitX=0.5;exitY=1;exitDx=0;exitDy=0;" edge="1" parent="1" source="qWewhZYoWnIx53V6GJs0-1" target="qWewhZYoWnIx53V6GJs0-5">
          <mxGeometry relative="1" as="geometry" />
        </mxCell>
        <mxCell id="qWewhZYoWnIx53V6GJs0-10" style="edgeStyle=orthogonalEdgeStyle;rounded=0;orthogonalLoop=1;jettySize=auto;html=1;exitX=0.5;exitY=1;exitDx=0;exitDy=0;entryX=0.5;entryY=0;entryDx=0;entryDy=0;" edge="1" parent="1" source="qWewhZYoWnIx53V6GJs0-1" target="qWewhZYoWnIx53V6GJs0-3">
          <mxGeometry relative="1" as="geometry" />
        </mxCell>
        <mxCell id="qWewhZYoWnIx53V6GJs0-11" style="edgeStyle=orthogonalEdgeStyle;rounded=0;orthogonalLoop=1;jettySize=auto;html=1;exitX=0.5;exitY=1;exitDx=0;exitDy=0;entryX=0.5;entryY=0;entryDx=0;entryDy=0;" edge="1" parent="1" source="qWewhZYoWnIx53V6GJs0-1" target="qWewhZYoWnIx53V6GJs0-6">
          <mxGeometry relative="1" as="geometry" />
        </mxCell>
        <mxCell id="qWewhZYoWnIx53V6GJs0-12" style="edgeStyle=orthogonalEdgeStyle;rounded=0;orthogonalLoop=1;jettySize=auto;html=1;exitX=0.5;exitY=1;exitDx=0;exitDy=0;entryX=0.5;entryY=0;entryDx=0;entryDy=0;" edge="1" parent="1" source="qWewhZYoWnIx53V6GJs0-1" target="qWewhZYoWnIx53V6GJs0-7">
          <mxGeometry relative="1" as="geometry" />
        </mxCell>
        <mxCell id="qWewhZYoWnIx53V6GJs0-13" style="edgeStyle=orthogonalEdgeStyle;rounded=0;orthogonalLoop=1;jettySize=auto;html=1;exitX=0.5;exitY=1;exitDx=0;exitDy=0;" edge="1" parent="1" source="qWewhZYoWnIx53V6GJs0-1" target="qWewhZYoWnIx53V6GJs0-2">
          <mxGeometry relative="1" as="geometry" />
        </mxCell>
        <mxCell id="qWewhZYoWnIx53V6GJs0-1" value="restaurant" style="rounded=0;whiteSpace=wrap;html=1;" vertex="1" parent="1">
          <mxGeometry x="510" y="50" width="120" height="60" as="geometry" />
        </mxCell>
        <mxCell id="qWewhZYoWnIx53V6GJs0-2" value="log in/log off" style="rounded=0;whiteSpace=wrap;html=1;" vertex="1" parent="1">
          <mxGeometry x="80" y="200" width="120" height="60" as="geometry" />
        </mxCell>
        <mxCell id="qWewhZYoWnIx53V6GJs0-19" style="edgeStyle=orthogonalEdgeStyle;rounded=0;orthogonalLoop=1;jettySize=auto;html=1;exitX=0.5;exitY=1;exitDx=0;exitDy=0;entryX=1;entryY=0.5;entryDx=0;entryDy=0;" edge="1" parent="1" source="qWewhZYoWnIx53V6GJs0-3" target="qWewhZYoWnIx53V6GJs0-18">
          <mxGeometry relative="1" as="geometry" />
        </mxCell>
        <mxCell id="qWewhZYoWnIx53V6GJs0-20" style="edgeStyle=orthogonalEdgeStyle;rounded=0;orthogonalLoop=1;jettySize=auto;html=1;exitX=0.5;exitY=1;exitDx=0;exitDy=0;entryX=0;entryY=0.5;entryDx=0;entryDy=0;" edge="1" parent="1" source="qWewhZYoWnIx53V6GJs0-3" target="qWewhZYoWnIx53V6GJs0-17">
          <mxGeometry relative="1" as="geometry" />
        </mxCell>
        <mxCell id="qWewhZYoWnIx53V6GJs0-3" value="table" style="rounded=0;whiteSpace=wrap;html=1;" vertex="1" parent="1">
          <mxGeometry x="290" y="200" width="119" height="60" as="geometry" />
        </mxCell>
        <mxCell id="qWewhZYoWnIx53V6GJs0-4" value="order view" style="rounded=0;whiteSpace=wrap;html=1;" vertex="1" parent="1">
          <mxGeometry x="400" y="280" width="120" height="60" as="geometry" />
        </mxCell>
        <mxCell id="qWewhZYoWnIx53V6GJs0-15" style="edgeStyle=orthogonalEdgeStyle;rounded=0;orthogonalLoop=1;jettySize=auto;html=1;exitX=0.5;exitY=1;exitDx=0;exitDy=0;entryX=1;entryY=0.5;entryDx=0;entryDy=0;" edge="1" parent="1" source="qWewhZYoWnIx53V6GJs0-5" target="qWewhZYoWnIx53V6GJs0-4">
          <mxGeometry relative="1" as="geometry" />
        </mxCell>
        <mxCell id="qWewhZYoWnIx53V6GJs0-16" style="edgeStyle=orthogonalEdgeStyle;rounded=0;orthogonalLoop=1;jettySize=auto;html=1;exitX=0.5;exitY=1;exitDx=0;exitDy=0;entryX=0;entryY=0.5;entryDx=0;entryDy=0;" edge="1" parent="1" source="qWewhZYoWnIx53V6GJs0-5" target="qWewhZYoWnIx53V6GJs0-14">
          <mxGeometry relative="1" as="geometry" />
        </mxCell>
        <mxCell id="qWewhZYoWnIx53V6GJs0-5" value="order" style="rounded=0;whiteSpace=wrap;html=1;" vertex="1" parent="1">
          <mxGeometry x="511" y="200" width="119" height="60" as="geometry" />
        </mxCell>
        <mxCell id="qWewhZYoWnIx53V6GJs0-24" style="edgeStyle=orthogonalEdgeStyle;rounded=0;orthogonalLoop=1;jettySize=auto;html=1;exitX=0.5;exitY=1;exitDx=0;exitDy=0;entryX=0;entryY=0.5;entryDx=0;entryDy=0;" edge="1" parent="1" source="qWewhZYoWnIx53V6GJs0-6" target="qWewhZYoWnIx53V6GJs0-21">
          <mxGeometry relative="1" as="geometry" />
        </mxCell>
        <mxCell id="qWewhZYoWnIx53V6GJs0-25" style="edgeStyle=orthogonalEdgeStyle;rounded=0;orthogonalLoop=1;jettySize=auto;html=1;exitX=0.5;exitY=1;exitDx=0;exitDy=0;entryX=0;entryY=0.5;entryDx=0;entryDy=0;" edge="1" parent="1" source="qWewhZYoWnIx53V6GJs0-6" target="qWewhZYoWnIx53V6GJs0-23">
          <mxGeometry relative="1" as="geometry" />
        </mxCell>
        <mxCell id="qWewhZYoWnIx53V6GJs0-26" style="edgeStyle=orthogonalEdgeStyle;rounded=0;orthogonalLoop=1;jettySize=auto;html=1;exitX=0.5;exitY=1;exitDx=0;exitDy=0;entryX=0;entryY=0.5;entryDx=0;entryDy=0;" edge="1" parent="1" source="qWewhZYoWnIx53V6GJs0-6" target="qWewhZYoWnIx53V6GJs0-22">
          <mxGeometry relative="1" as="geometry" />
        </mxCell>
        <mxCell id="qWewhZYoWnIx53V6GJs0-6" value="manage" style="rounded=0;whiteSpace=wrap;html=1;" vertex="1" parent="1">
          <mxGeometry x="760" y="200" width="119" height="60" as="geometry" />
        </mxCell>
        <mxCell id="qWewhZYoWnIx53V6GJs0-30" style="edgeStyle=orthogonalEdgeStyle;rounded=0;orthogonalLoop=1;jettySize=auto;html=1;exitX=0.5;exitY=1;exitDx=0;exitDy=0;entryX=0;entryY=0.5;entryDx=0;entryDy=0;" edge="1" parent="1" source="qWewhZYoWnIx53V6GJs0-7" target="qWewhZYoWnIx53V6GJs0-27">
          <mxGeometry relative="1" as="geometry" />
        </mxCell>
        <mxCell id="qWewhZYoWnIx53V6GJs0-31" style="edgeStyle=orthogonalEdgeStyle;rounded=0;orthogonalLoop=1;jettySize=auto;html=1;exitX=0.5;exitY=1;exitDx=0;exitDy=0;entryX=0;entryY=0.5;entryDx=0;entryDy=0;" edge="1" parent="1" source="qWewhZYoWnIx53V6GJs0-7" target="qWewhZYoWnIx53V6GJs0-29">
          <mxGeometry relative="1" as="geometry" />
        </mxCell>
        <mxCell id="qWewhZYoWnIx53V6GJs0-32" style="edgeStyle=orthogonalEdgeStyle;rounded=0;orthogonalLoop=1;jettySize=auto;html=1;exitX=0.5;exitY=1;exitDx=0;exitDy=0;entryX=0;entryY=0.5;entryDx=0;entryDy=0;" edge="1" parent="1" source="qWewhZYoWnIx53V6GJs0-7" target="qWewhZYoWnIx53V6GJs0-28">
          <mxGeometry relative="1" as="geometry" />
        </mxCell>
        <mxCell id="qWewhZYoWnIx53V6GJs0-7" value="stock" style="rounded=0;whiteSpace=wrap;html=1;" vertex="1" parent="1">
          <mxGeometry x="1000" y="200" width="119" height="60" as="geometry" />
        </mxCell>
        <mxCell id="qWewhZYoWnIx53V6GJs0-35" style="edgeStyle=orthogonalEdgeStyle;rounded=0;orthogonalLoop=1;jettySize=auto;html=1;exitX=0.5;exitY=1;exitDx=0;exitDy=0;entryX=0.5;entryY=0;entryDx=0;entryDy=0;" edge="1" parent="1" source="qWewhZYoWnIx53V6GJs0-14" target="qWewhZYoWnIx53V6GJs0-33">
          <mxGeometry relative="1" as="geometry" />
        </mxCell>
        <mxCell id="qWewhZYoWnIx53V6GJs0-14" value="place order" style="rounded=0;whiteSpace=wrap;html=1;" vertex="1" parent="1">
          <mxGeometry x="620" y="280" width="120" height="60" as="geometry" />
        </mxCell>
        <mxCell id="qWewhZYoWnIx53V6GJs0-17" value="view table" style="rounded=0;whiteSpace=wrap;html=1;" vertex="1" parent="1">
          <mxGeometry x="400" y="380" width="120" height="60" as="geometry" />
        </mxCell>
        <mxCell id="qWewhZYoWnIx53V6GJs0-18" value="reserve table" style="rounded=0;whiteSpace=wrap;html=1;" vertex="1" parent="1">
          <mxGeometry x="180" y="380" width="120" height="60" as="geometry" />
        </mxCell>
        <mxCell id="qWewhZYoWnIx53V6GJs0-21" value="manage employee" style="rounded=0;whiteSpace=wrap;html=1;" vertex="1" parent="1">
          <mxGeometry x="880" y="280" width="120" height="60" as="geometry" />
        </mxCell>
        <mxCell id="qWewhZYoWnIx53V6GJs0-22" value="manage stock" style="rounded=0;whiteSpace=wrap;html=1;" vertex="1" parent="1">
          <mxGeometry x="880" y="440" width="120" height="60" as="geometry" />
        </mxCell>
        <mxCell id="qWewhZYoWnIx53V6GJs0-23" value="manage menu" style="rounded=0;whiteSpace=wrap;html=1;" vertex="1" parent="1">
          <mxGeometry x="879" y="360" width="120" height="60" as="geometry" />
        </mxCell>
        <mxCell id="qWewhZYoWnIx53V6GJs0-27" value="add stock item" style="rounded=0;whiteSpace=wrap;html=1;" vertex="1" parent="1">
          <mxGeometry x="1130" y="280" width="120" height="60" as="geometry" />
        </mxCell>
        <mxCell id="qWewhZYoWnIx53V6GJs0-28" value="remove stock item" style="rounded=0;whiteSpace=wrap;html=1;" vertex="1" parent="1">
          <mxGeometry x="1130" y="440" width="120" height="60" as="geometry" />
        </mxCell>
        <mxCell id="qWewhZYoWnIx53V6GJs0-29" value="update stock item" style="rounded=0;whiteSpace=wrap;html=1;" vertex="1" parent="1">
          <mxGeometry x="1130" y="360" width="120" height="60" as="geometry" />
        </mxCell>
        <mxCell id="qWewhZYoWnIx53V6GJs0-33" value="pay" style="rounded=0;whiteSpace=wrap;html=1;" vertex="1" parent="1">
          <mxGeometry x="620" y="380" width="120" height="60" as="geometry" />
        </mxCell>
      </root>
    </mxGraphModel>
  </diagram>
</mxfile>
